<?xml version="1.0" encoding="utf-8"?>
<!-- Generator: Adobe Illustrator 27.0.0, SVG Export Plug-In . SVG Version: 6.00 Build 0)  -->
<svg version="1.1" id="Layer_1" xmlns="http://www.w3.org/2000/svg" xmlns:xlink="http://www.w3.org/1999/xlink" x="0px" y="0px"
	 viewBox="0 0 16 16" style="enable-background:new 0 0 16 16;" xml:space="preserve">
<style type="text/css">
	.st0{fill:#FFFFFF;}
</style>
<g>
	<path class="st0" d="M7.9,15c-1,0-2-0.2-2.9-0.6c-0.9-0.4-1.7-0.9-2.4-1.6S1.4,11.4,1,10.5C0.6,9.6,0.4,8.6,0.4,7.6h1.4
		c0,3.3,2.7,6,6,6s6-2.7,6-6s-2.7-6-6-6V0.1c1,0,2,0.2,2.9,0.6c0.9,0.4,1.7,0.9,2.4,1.6s1.2,1.5,1.6,2.4c0.4,0.9,0.6,1.9,0.6,2.9
		s-0.2,2-0.6,2.9c-0.4,0.9-0.9,1.7-1.6,2.4c-0.7,0.7-1.5,1.2-2.4,1.6C9.9,14.8,8.9,15,7.9,15L7.9,15z"/>
	<path class="st0" d="M7.9,1.6c-0.4,0-0.7-0.3-0.7-0.7s0.3-0.7,0.7-0.7"/>
	<path class="st0" d="M0.4,7.6c0-0.4,0.3-0.7,0.7-0.7c0.4,0,0.7,0.3,0.7,0.7"/>
	<path class="st0" d="M7,4.3c0-0.4,0.3-0.7,0.7-0.7s0.7,0.3,0.7,0.7"/>
	<path class="st0" d="M8.5,7.4c0,0.4-0.3,0.7-0.7,0.7C7.4,8.2,7,7.8,7,7.4"/>
	
		<rect x="7" y="4.2" transform="matrix(1 -1.745326e-03 1.745326e-03 1 -1.020355e-02 1.353289e-02)" class="st0" width="1.4" height="3.2"/>
	<g>
		<rect x="9" y="9.8" transform="matrix(0.7338 -0.6793 0.6793 0.7338 -6.0918 10.1001)" class="st0" width="1.7" height="6.1"/>
		<path class="st0" d="M7.2,11.2c-0.3-0.3-0.3-0.9,0-1.2C7.5,9.7,8.1,9.7,8.4,10"/>
		<path class="st0" d="M12.5,14.5c0.3,0.3,0.3,0.9,0,1.2c-0.3,0.3-0.9,0.3-1.2-0.1"/>
	</g>
</g>
</svg>
